2.8Hzhigh3min_grf.mot
version=1
nRows=17
nColumns 19
inDegrees=yes
endheader
time	1_ground_force_vx	1_ground_force_vy	1_ground_force_vz	1_ground_force_px	1_ground_force_py	1_ground_force_pz	1_ground_torque_x	1_ground_torque_y	1_ground_torque_z	2_ground_force_vx	2_ground_force_vy	2_ground_force_vz	2_ground_force_px	2_ground_force_py	2_ground_force_pz	2_ground_torque_x	2_ground_torque_y	2_ground_torque_z
            0.005000	          -33.269873	          889.677362	          -55.075101	           -0.201953	            0.006367	           -0.437604	            0.059106	           -1.580562	            0.097844	          -25.192075	          844.295039	           39.251194	           -0.210343	            0.005755	           -0.706188	           -0.056354	            1.888675	            0.087804
            0.005500	          -36.341895	          897.606885	          -54.666620	           -0.202003	            0.006366	           -0.437362	            0.089867	           -2.219623	            0.135181	          -22.830567	          852.215996	           40.967843	           -0.210457	            0.005755	           -0.706436	           -0.025713	            0.959827	            0.046141
            0.006000	          -37.633256	          905.188745	          -57.198901	           -0.202156	            0.006364	           -0.436890	            0.110016	           -2.646209	            0.167214	          -22.339565	          859.029359	           41.555072	           -0.210543	            0.005755	           -0.706384	           -0.014422	            0.554559	            0.026827
            0.006500	          -36.362399	          910.797448	          -61.901281	           -0.202196	            0.006364	           -0.437001	            0.114480	           -2.867469	            0.194884	          -23.957716	          866.021198	           41.580718	           -0.210572	            0.005755	           -0.706409	           -0.030055	            1.086423	            0.052163
            0.007000	          -32.845952	          917.849620	          -66.786482	           -0.202202	            0.006363	           -0.436759	            0.093106	           -2.601762	            0.189315	          -26.041668	          872.274448	           41.697790	           -0.210537	            0.005755	           -0.706449	           -0.060371	            2.022134	            0.096665
            0.007500	          -28.772736	          923.989210	          -69.063131	           -0.202166	            0.006364	           -0.436969	            0.066197	           -2.125814	            0.158893	          -27.284191	          879.082222	           42.098045	           -0.210658	            0.005755	           -0.706522	           -0.086686	            2.792992	            0.133753
            0.008000	          -26.756131	          931.018554	          -68.716997	           -0.202225	            0.006363	           -0.436744	            0.053419	           -1.858796	            0.137195	          -25.854549	          885.528176	           43.387483	           -0.210796	            0.005754	           -0.706507	           -0.080666	            2.762825	            0.135368
            0.008500	          -26.429389	          936.414851	          -65.943249	           -0.202362	            0.006364	           -0.436974	            0.051420	           -1.821846	            0.128296	          -22.651412	          894.001983	           45.856594	           -0.210964	            0.005755	           -0.706882	           -0.049775	            1.964494	            0.100766
            0.009000	          -27.847492	          942.896867	          -64.215230	           -0.202448	            0.006363	           -0.436745	            0.066073	           -2.237172	            0.152361	          -19.532124	          899.714162	           48.034320	           -0.211160	            0.005755	           -0.707014	           -0.023691	            1.091303	            0.058263
            0.009500	          -29.225362	          948.307263	          -64.830604	           -0.202587	            0.006363	           -0.436729	            0.084359	           -2.737293	            0.187134	          -17.779249	          907.450849	           49.187434	           -0.211256	            0.005754	           -0.707049	           -0.013445	            0.686252	            0.037198
            0.010000	          -28.179788	          954.810203	          -67.877744	           -0.202637	            0.006362	           -0.436336	            0.087333	           -2.959089	            0.210363	          -18.887327	          915.917340	           49.311973	           -0.211390	            0.005755	           -0.707305	           -0.022447	            1.088547	            0.058606
            0.010500	          -25.810764	          959.882088	          -73.456431	           -0.202764	            0.006362	           -0.436443	            0.077874	           -2.896069	            0.221626	          -21.343606	          921.434180	           49.004224	           -0.211363	            0.005754	           -0.707149	           -0.048258	            2.083383	            0.110800
            0.011000	          -22.612536	          966.569084	          -77.287692	           -0.202698	            0.006361	           -0.436254	            0.059961	           -2.563035	            0.204943	          -23.614355	          927.503176	           48.979936	           -0.211398	            0.005754	           -0.707212	           -0.072939	            2.864833	            0.151287
            0.011500	          -20.461846	          972.523213	          -78.413941	           -0.202843	            0.006361	           -0.436116	            0.047311	           -2.248647	            0.181307	          -23.963302	          933.392562	           49.611167	           -0.211387	            0.005754	           -0.707184	           -0.072300	            2.816139	            0.149682
            0.012000	          -19.725441	          977.744405	          -76.834237	           -0.202813	            0.006360	           -0.436063	            0.044548	           -2.208117	            0.173521	          -22.348176	          940.390885	           51.090209	           -0.211504	            0.005754	           -0.707284	           -0.048616	            2.045729	            0.111142
            0.012500	          -20.453604	          982.240197	          -74.336881	           -0.202995	            0.006362	           -0.436342	            0.049870	           -2.394911	            0.181249	          -19.846867	          948.497220	           52.619743	           -0.211697	            0.005755	           -0.707609	           -0.024792	            1.184845	            0.065732
            0.013000	          -21.642347	          988.541886	          -72.564336	           -0.203090	            0.006360	           -0.436069	            0.059557	           -2.720347	            0.199688	          -18.232340	          955.679243	           54.240226	           -0.211735	            0.005755	           -0.707723	           -0.015973	            0.837248	            0.047519
